# xmcd
#
# Track frame offsets:
#	150
#	21805
#	36280
#	60027
#	76702
#	99730
#	118195
#	135997
#	159017
#	175925
#
# Disc length: 2747 seconds
#
# Revision: 0
# Processed by: cddbd v1.4PL0 Copyright (c) Steve Scherf et al.
# Submitted via: dBpowerAMP V4.0
#
DISCID=6a0ab90a
DTITLE=Various Artist - Pickin' on Blues Traveler
DYEAR=1900
DGENRE=
TTITLE0=Run Around
TTITLE1=Crash Burn
TTITLE2=Hook
TTITLE3=But Anyway
TTITLE4=All Hands
TTITLE5=100 Years
TTITLE6=Carolina Blues
TTITLE7=Canadian Rose
TTITLE8=Girl Inside My Head
TTITLE9=Stand
EXTD=
EXTT0=
EXTT1=
EXTT2=
EXTT3=
EXTT4=
EXTT5=
EXTT6=
EXTT7=
EXTT8=
EXTT9=
PLAYORDER=
